%FSLAX34Y34*%
G04 Gerber Fmt 3.4, Leading zero omitted, Abs format*
G04 (created by PCBNEW (2014-03-19 BZR 4756)-product) date Sun 26 Oct 2014 00:18:32 BST*
%MOIN*%
G01*
G70*
G90*
G04 APERTURE LIST*
%ADD10C,0.005906*%
%ADD11C,0.003000*%
G04 APERTURE END LIST*
G54D10*
X55116Y-41546D02*
X55883Y-41546D01*
X55883Y-41546D02*
X55883Y-41053D01*
X55883Y-41053D02*
X55116Y-41053D01*
X55116Y-41053D02*
X55116Y-41546D01*
X54500Y-40500D02*
X54500Y-38500D01*
X54500Y-38500D02*
X53500Y-38500D01*
X53500Y-38500D02*
X53500Y-40500D01*
X53500Y-41500D02*
X53500Y-40500D01*
X53500Y-40500D02*
X54500Y-40500D01*
X53500Y-41500D02*
X54500Y-41500D01*
X54500Y-41500D02*
X54500Y-40500D01*
X57500Y-40500D02*
X57500Y-38500D01*
X57500Y-38500D02*
X56500Y-38500D01*
X56500Y-38500D02*
X56500Y-40500D01*
X56500Y-41500D02*
X56500Y-40500D01*
X56500Y-40500D02*
X57500Y-40500D01*
X56500Y-41500D02*
X57500Y-41500D01*
X57500Y-41500D02*
X57500Y-40500D01*
X56130Y-40000D02*
G75*
G03X56130Y-40000I-630J0D01*
G74*
G01*
X56484Y-39311D02*
X56188Y-39015D01*
X54515Y-40984D02*
X54515Y-39015D01*
X54515Y-39015D02*
X56484Y-39015D01*
X56484Y-39015D02*
X56484Y-40984D01*
X56484Y-40984D02*
X54515Y-40984D01*
G54D11*
X55480Y-40942D02*
X55474Y-40948D01*
X55457Y-40954D01*
X55445Y-40954D01*
X55428Y-40948D01*
X55417Y-40937D01*
X55411Y-40925D01*
X55405Y-40902D01*
X55405Y-40885D01*
X55411Y-40862D01*
X55417Y-40851D01*
X55428Y-40840D01*
X55445Y-40834D01*
X55457Y-40834D01*
X55474Y-40840D01*
X55480Y-40845D01*
X55594Y-40954D02*
X55525Y-40954D01*
X55560Y-40954D02*
X55560Y-40834D01*
X55548Y-40851D01*
X55537Y-40862D01*
X55525Y-40868D01*
M02*
