%FSLAX34Y34*%
G04 Gerber Fmt 3.4, Leading zero omitted, Abs format*
G04 (created by PCBNEW (2014-03-19 BZR 4756)-product) date Sun 26 Oct 2014 00:18:32 BST*
%MOIN*%
G01*
G70*
G90*
G04 APERTURE LIST*
%ADD10C,0.005906*%
%ADD11C,0.004921*%
%ADD12R,0.080000X0.068000*%
%ADD13O,0.080000X0.068000*%
%ADD14C,0.010000*%
%ADD15C,0.015748*%
G04 APERTURE END LIST*
G54D10*
G54D11*
X56128Y-40489D02*
X56240Y-40489D01*
X56184Y-40489D02*
X56184Y-40292D01*
X56203Y-40320D01*
X56221Y-40339D01*
X56240Y-40348D01*
X56006Y-40292D02*
X55987Y-40292D01*
X55968Y-40301D01*
X55959Y-40310D01*
X55949Y-40329D01*
X55940Y-40367D01*
X55940Y-40414D01*
X55949Y-40451D01*
X55959Y-40470D01*
X55968Y-40479D01*
X55987Y-40489D01*
X56006Y-40489D01*
X56024Y-40479D01*
X56034Y-40470D01*
X56043Y-40451D01*
X56053Y-40414D01*
X56053Y-40367D01*
X56043Y-40329D01*
X56034Y-40310D01*
X56024Y-40301D01*
X56006Y-40292D01*
X55884Y-40357D02*
X55809Y-40357D01*
X55856Y-40292D02*
X55856Y-40460D01*
X55846Y-40479D01*
X55828Y-40489D01*
X55809Y-40489D01*
X55715Y-40489D02*
X55734Y-40479D01*
X55743Y-40470D01*
X55753Y-40451D01*
X55753Y-40395D01*
X55743Y-40376D01*
X55734Y-40367D01*
X55715Y-40357D01*
X55687Y-40357D01*
X55668Y-40367D01*
X55659Y-40376D01*
X55649Y-40395D01*
X55649Y-40451D01*
X55659Y-40470D01*
X55668Y-40479D01*
X55687Y-40489D01*
X55715Y-40489D01*
X55584Y-40292D02*
X55453Y-40292D01*
X55537Y-40489D01*
X55378Y-40470D02*
X55368Y-40479D01*
X55378Y-40489D01*
X55387Y-40479D01*
X55378Y-40470D01*
X55378Y-40489D01*
X55200Y-40479D02*
X55218Y-40489D01*
X55256Y-40489D01*
X55275Y-40479D01*
X55284Y-40470D01*
X55293Y-40451D01*
X55293Y-40395D01*
X55284Y-40376D01*
X55275Y-40367D01*
X55256Y-40357D01*
X55218Y-40357D01*
X55200Y-40367D01*
X55087Y-40489D02*
X55106Y-40479D01*
X55115Y-40470D01*
X55125Y-40451D01*
X55125Y-40395D01*
X55115Y-40376D01*
X55106Y-40367D01*
X55087Y-40357D01*
X55059Y-40357D01*
X55040Y-40367D01*
X55031Y-40376D01*
X55021Y-40395D01*
X55021Y-40451D01*
X55031Y-40470D01*
X55040Y-40479D01*
X55059Y-40489D01*
X55087Y-40489D01*
X54937Y-40489D02*
X54937Y-40357D01*
X54937Y-40376D02*
X54928Y-40367D01*
X54909Y-40357D01*
X54881Y-40357D01*
X54862Y-40367D01*
X54853Y-40385D01*
X54853Y-40489D01*
X54853Y-40385D02*
X54843Y-40367D01*
X54825Y-40357D01*
X54796Y-40357D01*
X54778Y-40367D01*
X54768Y-40385D01*
X54768Y-40489D01*
G54D12*
X54000Y-41000D03*
G54D13*
X54000Y-40000D03*
X54000Y-39000D03*
G54D12*
X57000Y-41000D03*
G54D13*
X57000Y-40000D03*
X57000Y-39000D03*
G54D14*
X57000Y-41000D02*
X54000Y-41000D01*
X54000Y-39000D02*
X57000Y-39000D01*
G54D10*
G36*
X57029Y-39021D02*
X57021Y-39021D01*
X57021Y-39029D01*
X56978Y-39029D01*
X56978Y-39021D01*
X56391Y-39021D01*
X56332Y-39117D01*
X56360Y-39217D01*
X56487Y-39422D01*
X56558Y-39473D01*
X56462Y-39536D01*
X56320Y-39749D01*
X56296Y-39873D01*
X54703Y-39873D01*
X54679Y-39749D01*
X54537Y-39536D01*
X54441Y-39473D01*
X54512Y-39422D01*
X54639Y-39217D01*
X54667Y-39117D01*
X54608Y-39021D01*
X54021Y-39021D01*
X54021Y-39029D01*
X53978Y-39029D01*
X53978Y-39021D01*
X53970Y-39021D01*
X53970Y-38978D01*
X53978Y-38978D01*
X53978Y-38970D01*
X54021Y-38970D01*
X54021Y-38978D01*
X54608Y-38978D01*
X54667Y-38882D01*
X54639Y-38782D01*
X54609Y-38734D01*
X56390Y-38734D01*
X56360Y-38782D01*
X56332Y-38882D01*
X56391Y-38978D01*
X56978Y-38978D01*
X56978Y-38970D01*
X57021Y-38970D01*
X57021Y-38978D01*
X57029Y-38978D01*
X57029Y-39021D01*
X57029Y-39021D01*
G37*
G54D15*
X57029Y-39021D02*
X57021Y-39021D01*
X57021Y-39029D01*
X56978Y-39029D01*
X56978Y-39021D01*
X56391Y-39021D01*
X56332Y-39117D01*
X56360Y-39217D01*
X56487Y-39422D01*
X56558Y-39473D01*
X56462Y-39536D01*
X56320Y-39749D01*
X56296Y-39873D01*
X54703Y-39873D01*
X54679Y-39749D01*
X54537Y-39536D01*
X54441Y-39473D01*
X54512Y-39422D01*
X54639Y-39217D01*
X54667Y-39117D01*
X54608Y-39021D01*
X54021Y-39021D01*
X54021Y-39029D01*
X53978Y-39029D01*
X53978Y-39021D01*
X53970Y-39021D01*
X53970Y-38978D01*
X53978Y-38978D01*
X53978Y-38970D01*
X54021Y-38970D01*
X54021Y-38978D01*
X54608Y-38978D01*
X54667Y-38882D01*
X54639Y-38782D01*
X54609Y-38734D01*
X56390Y-38734D01*
X56360Y-38782D01*
X56332Y-38882D01*
X56391Y-38978D01*
X56978Y-38978D01*
X56978Y-38970D01*
X57021Y-38970D01*
X57021Y-38978D01*
X57029Y-38978D01*
X57029Y-39021D01*
M02*
