%FSLAX34Y34*%
G04 Gerber Fmt 3.4, Leading zero omitted, Abs format*
G04 (created by PCBNEW (2014-03-19 BZR 4756)-product) date Sun 26 Oct 2014 00:18:32 BST*
%MOIN*%
G01*
G70*
G90*
G04 APERTURE LIST*
%ADD10C,0.005906*%
%ADD11R,0.015700X0.023600*%
%ADD12R,0.080000X0.068000*%
%ADD13O,0.080000X0.068000*%
%ADD14R,0.035433X0.059055*%
%ADD15C,0.010000*%
%ADD16C,0.015748*%
G04 APERTURE END LIST*
G54D10*
G54D11*
X55323Y-41300D03*
X55677Y-41300D03*
G54D12*
X54000Y-41000D03*
G54D13*
X54000Y-40000D03*
X54000Y-39000D03*
G54D12*
X57000Y-41000D03*
G54D13*
X57000Y-40000D03*
X57000Y-39000D03*
G54D14*
X54850Y-41181D03*
X56149Y-41181D03*
X56149Y-38818D03*
X54850Y-38818D03*
G54D15*
X54000Y-41000D02*
X54669Y-41000D01*
X54669Y-41000D02*
X54850Y-41181D01*
X54975Y-41181D02*
X55094Y-41300D01*
X54850Y-41181D02*
X54975Y-41181D01*
X55322Y-41300D02*
X55094Y-41300D01*
X57000Y-39000D02*
X56449Y-39000D01*
X56149Y-38818D02*
X56149Y-39041D01*
X56408Y-39041D02*
X56449Y-39000D01*
X56149Y-39041D02*
X56408Y-39041D01*
X56149Y-39041D02*
X56149Y-39041D01*
X55677Y-39514D02*
X55677Y-41300D01*
X56149Y-39041D02*
X55677Y-39514D01*
X54000Y-40000D02*
X54300Y-40000D01*
X54300Y-40000D02*
X54850Y-39449D01*
X54850Y-39449D02*
X54850Y-38818D01*
X56149Y-41181D02*
X56149Y-40350D01*
X56500Y-40000D02*
X57000Y-40000D01*
X56149Y-40350D02*
X56500Y-40000D01*
G54D10*
G36*
X54029Y-39021D02*
X54021Y-39021D01*
X54021Y-39029D01*
X53978Y-39029D01*
X53978Y-39021D01*
X53970Y-39021D01*
X53970Y-38978D01*
X53978Y-38978D01*
X53978Y-38970D01*
X54021Y-38970D01*
X54021Y-38978D01*
X54029Y-38978D01*
X54029Y-39021D01*
X54029Y-39021D01*
G37*
G54D16*
X54029Y-39021D02*
X54021Y-39021D01*
X54021Y-39029D01*
X53978Y-39029D01*
X53978Y-39021D01*
X53970Y-39021D01*
X53970Y-38978D01*
X53978Y-38978D01*
X53978Y-38970D01*
X54021Y-38970D01*
X54021Y-38978D01*
X54029Y-38978D01*
X54029Y-39021D01*
G54D10*
G36*
X56558Y-39473D02*
X56462Y-39536D01*
X56381Y-39658D01*
X56360Y-39662D01*
X56241Y-39741D01*
X56128Y-39855D01*
X56128Y-39323D01*
X56128Y-38840D01*
X55763Y-38840D01*
X55693Y-38909D01*
X55693Y-39169D01*
X55736Y-39272D01*
X55814Y-39350D01*
X55916Y-39392D01*
X56027Y-39392D01*
X56058Y-39392D01*
X56128Y-39323D01*
X56128Y-39855D01*
X55891Y-40092D01*
X55812Y-40210D01*
X55784Y-40350D01*
X55784Y-40628D01*
X55705Y-40707D01*
X55657Y-40823D01*
X55657Y-40903D01*
X55655Y-40903D01*
X55655Y-40972D01*
X55586Y-40903D01*
X55551Y-40903D01*
X55464Y-40867D01*
X55342Y-40867D01*
X55342Y-40823D01*
X55294Y-40707D01*
X55205Y-40618D01*
X55090Y-40570D01*
X54964Y-40570D01*
X54703Y-40570D01*
X54667Y-40481D01*
X54581Y-40396D01*
X54679Y-40250D01*
X54707Y-40108D01*
X55108Y-39707D01*
X55187Y-39589D01*
X55187Y-39589D01*
X55215Y-39449D01*
X55215Y-39371D01*
X55294Y-39292D01*
X55342Y-39176D01*
X55342Y-39051D01*
X55342Y-38734D01*
X55700Y-38734D01*
X55763Y-38797D01*
X56128Y-38797D01*
X56128Y-38789D01*
X56170Y-38789D01*
X56170Y-38797D01*
X56178Y-38797D01*
X56178Y-38840D01*
X56170Y-38840D01*
X56170Y-39323D01*
X56240Y-39392D01*
X56271Y-39392D01*
X56382Y-39392D01*
X56451Y-39364D01*
X56487Y-39422D01*
X56558Y-39473D01*
X56558Y-39473D01*
G37*
G54D16*
X56558Y-39473D02*
X56462Y-39536D01*
X56381Y-39658D01*
X56360Y-39662D01*
X56241Y-39741D01*
X56128Y-39855D01*
X56128Y-39323D01*
X56128Y-38840D01*
X55763Y-38840D01*
X55693Y-38909D01*
X55693Y-39169D01*
X55736Y-39272D01*
X55814Y-39350D01*
X55916Y-39392D01*
X56027Y-39392D01*
X56058Y-39392D01*
X56128Y-39323D01*
X56128Y-39855D01*
X55891Y-40092D01*
X55812Y-40210D01*
X55784Y-40350D01*
X55784Y-40628D01*
X55705Y-40707D01*
X55657Y-40823D01*
X55657Y-40903D01*
X55655Y-40903D01*
X55655Y-40972D01*
X55586Y-40903D01*
X55551Y-40903D01*
X55464Y-40867D01*
X55342Y-40867D01*
X55342Y-40823D01*
X55294Y-40707D01*
X55205Y-40618D01*
X55090Y-40570D01*
X54964Y-40570D01*
X54703Y-40570D01*
X54667Y-40481D01*
X54581Y-40396D01*
X54679Y-40250D01*
X54707Y-40108D01*
X55108Y-39707D01*
X55187Y-39589D01*
X55187Y-39589D01*
X55215Y-39449D01*
X55215Y-39371D01*
X55294Y-39292D01*
X55342Y-39176D01*
X55342Y-39051D01*
X55342Y-38734D01*
X55700Y-38734D01*
X55763Y-38797D01*
X56128Y-38797D01*
X56128Y-38789D01*
X56170Y-38789D01*
X56170Y-38797D01*
X56178Y-38797D01*
X56178Y-38840D01*
X56170Y-38840D01*
X56170Y-39323D01*
X56240Y-39392D01*
X56271Y-39392D01*
X56382Y-39392D01*
X56451Y-39364D01*
X56487Y-39422D01*
X56558Y-39473D01*
G54D10*
G36*
X57029Y-39021D02*
X57021Y-39021D01*
X57021Y-39029D01*
X56978Y-39029D01*
X56978Y-39021D01*
X56970Y-39021D01*
X56970Y-38978D01*
X56978Y-38978D01*
X56978Y-38970D01*
X57021Y-38970D01*
X57021Y-38978D01*
X57029Y-38978D01*
X57029Y-39021D01*
X57029Y-39021D01*
G37*
G54D16*
X57029Y-39021D02*
X57021Y-39021D01*
X57021Y-39029D01*
X56978Y-39029D01*
X56978Y-39021D01*
X56970Y-39021D01*
X56970Y-38978D01*
X56978Y-38978D01*
X56978Y-38970D01*
X57021Y-38970D01*
X57021Y-38978D01*
X57029Y-38978D01*
X57029Y-39021D01*
M02*
